<svg width="75" height="21" viewBox="0 0 75 21" fill="none" xmlns="http://www.w3.org/2000/svg">
<path d="M10.748 13.844H2.784V9.114H9.736V7.046H2.784V2.8H10.748V0.644H0.584V16H10.748V13.844Z" fill="#FFF9F2"/>
<path d="M24.3877 11.512C24.3877 5.792 15.4557 7.838 15.4557 4.626C15.4557 3.042 17.1497 2.536 18.3597 2.536C20.0757 2.536 21.1757 3.108 21.9677 4.582L23.8597 3.724C22.7157 1.414 20.9777 0.467999 18.3597 0.467999C15.8077 0.467999 13.2777 1.81 13.2777 4.626C13.2777 10.104 22.1877 7.772 22.1877 11.512C22.1877 13.316 20.3397 14.13 18.7997 14.13C16.9517 14.13 15.3457 13.448 14.8397 11.512L12.7497 11.908C13.4757 14.878 15.6537 16.22 18.7997 16.22C21.6377 16.22 24.3877 14.548 24.3877 11.512ZM35.4839 9.972C35.4839 7.112 34.2519 5.044 31.2819 5.044C30.4239 5.044 29.3899 5.352 28.8179 6.166V0.644H26.7279V16H28.8179V9.07C28.8179 7.904 30.0059 7.112 31.0179 7.112C32.8879 7.112 33.4159 8.366 33.4159 9.972V16H35.4839V9.972ZM46.8937 10.654C46.8937 7.486 45.6177 5.066 42.1857 5.066C38.7317 5.066 37.4557 7.486 37.4557 10.654C37.4557 13.822 38.7317 16.22 42.1857 16.22C45.6177 16.22 46.8937 13.822 46.8937 10.654ZM44.7817 10.654C44.7817 12.436 44.3857 14.196 42.1637 14.196C39.9417 14.196 39.5677 12.436 39.5677 10.654C39.5677 8.872 39.9417 7.09 42.1857 7.09C44.4077 7.09 44.7817 8.872 44.7817 10.654ZM57.978 10.676C57.978 7.706 56.9 5.022 53.534 5.022C52.698 5.022 51.686 5.374 51.026 6.254L50.96 5.264H49.222V20.84H51.312V15.208C51.95 16 52.786 16.22 53.512 16.22C56.878 16.22 57.978 13.668 57.978 10.676ZM55.91 10.676C55.91 12.26 55.668 14.196 53.512 14.196C52.28 14.196 51.312 13.294 51.312 12.172V9.158C51.312 8.08 52.302 7.156 53.512 7.156C55.668 7.156 55.91 9.092 55.91 10.676ZM67.084 5.264L64.246 13.404L61.496 5.264H59.252L63.19 16.044L62.464 17.914C62.156 18.728 61.76 19.08 60.55 19.08H60.198V20.862H60.572C62.376 20.884 63.63 20.466 64.334 18.552L69.306 5.264H67.084Z" fill="white"/>
<path d="M74.258 14.724C74.258 13.91 73.598 13.272 72.784 13.272C71.992 13.272 71.332 13.91 71.332 14.724C71.332 15.538 71.992 16.176 72.784 16.176C73.598 16.176 74.258 15.538 74.258 14.724Z" fill="#F38D15"/>
</svg>
